<?xml version="1.0" encoding="UTF-8" standalone="no"?>
<!-- Created with Inkscape (http://www.inkscape.org/) -->

<svg
   xmlns:dc="http://purl.org/dc/elements/1.1/"
   xmlns:cc="http://creativecommons.org/ns#"
   xmlns:rdf="http://www.w3.org/1999/02/22-rdf-syntax-ns#"
   xmlns:svg="http://www.w3.org/2000/svg"
   xmlns="http://www.w3.org/2000/svg"
   xmlns:sodipodi="http://sodipodi.sourceforge.net/DTD/sodipodi-0.dtd"
   xmlns:inkscape="http://www.inkscape.org/namespaces/inkscape"
   id="svg4256"
   version="1.1"
   inkscape:version="0.91 r13725"
   width="325"
   height="417.5"
   viewBox="0 0 325 417.5"
   sodipodi:docname="orga.svg">
  <metadata
     id="metadata4262">
    <rdf:RDF>
      <cc:Work
         rdf:about="">
        <dc:format>image/svg+xml</dc:format>
        <dc:type
           rdf:resource="http://purl.org/dc/dcmitype/StillImage" />
        <dc:title />
      </cc:Work>
    </rdf:RDF>
  </metadata>
  <defs
     id="defs4260" />
  <sodipodi:namedview
     pagecolor="#ffffff"
     bordercolor="#666666"
     borderopacity="1"
     objecttolerance="10"
     gridtolerance="10"
     guidetolerance="10"
     inkscape:pageopacity="0"
     inkscape:pageshadow="2"
     inkscape:window-width="1619"
     inkscape:window-height="1029"
     id="namedview4258"
     showgrid="false"
     inkscape:zoom="2"
     inkscape:cx="104.7281"
     inkscape:cy="212.65557"
     inkscape:window-x="1280"
     inkscape:window-y="-22"
     inkscape:window-maximized="0"
     inkscape:current-layer="layer8"
     showguides="false" />
  <g
     inkscape:groupmode="layer"
     id="layer6"
     inkscape:label="face"
     style="display:inline">
    <g
       inkscape:groupmode="layer"
       id="layer8"
       inkscape:label="ear"
       style="display:inline;opacity:1"
       sodipodi:insensitive="true">
      <path
         style="fill:#c79d73;fill-opacity:1;fill-rule:evenodd;stroke:#000000;stroke-width:1px;stroke-linecap:butt;stroke-linejoin:miter;stroke-opacity:1"
         d="M 75.135693,253.73637 C 60.214605,235.81457 56.144282,235.1699 53.576837,241.18018 c -1.882039,4.40577 -2.621726,31.56822 3.506687,40.6955 l 6.623329,9.86437 c 9.958005,14.83083 12.329262,24.53458 27.768068,27.84836 z"
         id="path4287"
         inkscape:connector-curvature="0"
         sodipodi:nodetypes="cscscc" />
      <path
         style="opacity:1;fill:#71553a;fill-opacity:1;fill-rule:evenodd;stroke:#71553a;stroke-width:1px;stroke-linecap:butt;stroke-linejoin:miter;stroke-opacity:1"
         d="m 71.050886,266.73349 c -2.842162,-6.81552 -7.582138,-12.30256 -12.625768,-17.57705 -1.050436,6.02406 -2.813849,12.04811 -0.247564,18.07217 10.037857,6.97075 12.954906,18.04095 12.130639,24.50885 6.643454,8.0137 12.884354,16.05723 13.616024,24.50884 1.962285,1.64993 4.031334,2.81942 6.436665,2.47564 L 83.429089,290.00451 C 73.879322,286.9632 67.656881,280.13055 71.050886,266.73349 Z"
         id="path4289"
         inkscape:connector-curvature="0"
         sodipodi:nodetypes="cccccccc" />
      <path
         style="fill:#71553a;fill-opacity:1;fill-rule:evenodd;stroke:#000000;stroke-width:1px;stroke-linecap:butt;stroke-linejoin:miter;stroke-opacity:1"
         d="m 262.79651,257.64535 c 23.5098,-44.70538 30.40368,-5.43401 16.46061,29.83475 -2.48825,6.29399 -19.43098,31.98545 -30.51875,35.01409 z"
         id="path4277"
         inkscape:connector-curvature="0"
         sodipodi:nodetypes="cscc" />
      <path
         style="fill:none;fill-rule:evenodd;stroke:#000000;stroke-width:1px;stroke-linecap:round;stroke-linejoin:miter;stroke-opacity:1"
         d="m 280.63853,266.42543 c -0.28658,-5.80362 -0.0253,-12.07444 -1.80089,-16.6082 -4.55311,8.22571 -10.4748,15.53903 -16.6082,22.71121 9.20452,12.53152 -2.4038,19.07619 -8.60425,28.81422"
         id="path4279"
         inkscape:connector-curvature="0"
         sodipodi:nodetypes="cccc" />
      <path
         style="fill:none;fill-rule:evenodd;stroke:#000000;stroke-width:1px;stroke-linecap:butt;stroke-linejoin:miter;stroke-opacity:1"
         d="m 271.33393,261.52301 c 4.54336,3.35769 3.3228,8.82882 -0.10005,15.10745"
         id="path4281"
         inkscape:connector-curvature="0"
         sodipodi:nodetypes="cc" />
      <path
         style="fill:none;fill-rule:evenodd;stroke:#000000;stroke-width:1px;stroke-linecap:butt;stroke-linejoin:miter;stroke-opacity:1"
         d="m 270.13334,278.3313 -6.10301,21.11042"
         id="path4283"
         inkscape:connector-curvature="0" />
      <path
         style="fill:none;fill-rule:evenodd;stroke:#000000;stroke-width:1px;stroke-linecap:butt;stroke-linejoin:miter;stroke-opacity:1"
         d="m 251.92435,308.24607 c 8.03556,-3.14689 13.13045,-10.49475 19.50963,-16.0079"
         id="path4285"
         inkscape:connector-curvature="0"
         sodipodi:nodetypes="cc" />
      <path
         style="fill:none;fill-rule:evenodd;stroke:#000000;stroke-width:1px;stroke-linecap:butt;stroke-linejoin:miter;stroke-opacity:1"
         d="m 70.644191,266.17931 c -2.66512,-6.14265 -10.504041,-15.3896 -11.955171,-17.38934 -1.818229,5.57318 -1.58636,13.52104 -1.003231,17.13853"
         id="path4291"
         inkscape:connector-curvature="0"
         sodipodi:nodetypes="ccc" />
      <path
         style="fill:none;fill-rule:evenodd;stroke:#000000;stroke-width:1px;stroke-linecap:butt;stroke-linejoin:miter;stroke-opacity:1"
         d="m 66.296856,258.48787 c -3.832023,2.01325 -3.790563,7.01964 -2.758886,12.7912"
         id="path4293"
         inkscape:connector-curvature="0"
         sodipodi:nodetypes="cc" />
      <path
         style="fill:none;fill-rule:evenodd;stroke:#000000;stroke-width:1px;stroke-linecap:butt;stroke-linejoin:miter;stroke-opacity:1"
         d="M 87.866325,305.38892 C 79.83423,303.55907 75.874748,297.91104 71.647422,292.51412"
         id="path4295"
         inkscape:connector-curvature="0"
         sodipodi:nodetypes="cc" />
      <path
         style="fill:none;fill-rule:evenodd;stroke:#000000;stroke-width:1px;stroke-linecap:butt;stroke-linejoin:miter;stroke-opacity:1"
         d="M 86.027068,298.1991 72.650653,285.65871"
         id="path4297"
         inkscape:connector-curvature="0" />
      <path
         style="fill:none;fill-rule:evenodd;stroke:#000000;stroke-width:1px;stroke-linecap:butt;stroke-linejoin:miter;stroke-opacity:1"
         d="M 83.268182,303.46606 74.573513,291.92891"
         id="path4299"
         inkscape:connector-curvature="0" />
    </g>
    <g
       inkscape:groupmode="layer"
       id="layer4"
       inkscape:label="base_senga"
       style="display:inline;opacity:1"
       sodipodi:insensitive="true">
      <path
         style="opacity:1;fill:#c79d73;fill-opacity:1;fill-rule:evenodd;stroke:#000000;stroke-width:1px;stroke-linecap:butt;stroke-linejoin:miter;stroke-opacity:1"
         d="m 159.46412,410.45736 22.1044,0.44098 c 3.16219,-0.3854 6.12841,-2.51857 8.22418,-4.70904 C 247.41961,345.95849 243.31217,351.67627 261,264.5 279.91416,55.664191 49.590858,80.273705 77.5,262.5 c 15.55179,80.26701 17.134589,80.63403 69.81832,140.02957 3.15677,3.55894 7.22574,6.86843 12.1458,7.92779 z"
         id="path4162"
         inkscape:connector-curvature="0"
         sodipodi:nodetypes="ccsccsc" />
      <path
         style="fill:none;fill-rule:evenodd;stroke:#000000;stroke-width:1px;stroke-linecap:butt;stroke-linejoin:miter;stroke-opacity:1"
         d="m 151.16097,349.09755 c 11.00769,0.23338 21.69651,-1.44639 33.10341,1.18226"
         id="path4205"
         inkscape:connector-curvature="0"
         sodipodi:nodetypes="cc" />
      <path
         style="fill:none;fill-rule:evenodd;stroke:#000000;stroke-width:1px;stroke-linecap:butt;stroke-linejoin:miter;stroke-opacity:1"
         d="m 130.0491,346.22634 c -4.33412,2.60328 -1.61547,4.96712 5.51299,5.4574 l 66.43572,4.56929 c 6.79325,0.46722 10.93822,0.0507 11.4854,-2.42642"
         id="path4207"
         inkscape:connector-curvature="0"
         sodipodi:nodetypes="cssc" />
      <path
         style="fill:none;fill-rule:evenodd;stroke:#000000;stroke-width:1px;stroke-linecap:butt;stroke-linejoin:miter;stroke-opacity:1"
         d="m 145.75634,361.59577 c 17.3498,5.91457 33.64597,5.50732 49.65511,3.3779"
         id="path4209"
         inkscape:connector-curvature="0"
         sodipodi:nodetypes="cc" />
      <path
         style="fill:none;fill-rule:evenodd;stroke:#000000;stroke-width:1px;stroke-linecap:butt;stroke-linejoin:miter;stroke-opacity:1"
         d="m 176.32632,255.02306 3.71569,7.60028"
         id="path4211"
         inkscape:connector-curvature="0" />
      <path
         style="fill:none;fill-rule:evenodd;stroke:#000000;stroke-width:1px;stroke-linecap:butt;stroke-linejoin:miter;stroke-opacity:1"
         d="m 178.85974,265.32566 c -4.21624,10.51836 -5.51399,21.91227 -5.23574,33.77898"
         id="path4213"
         inkscape:connector-curvature="0"
         sodipodi:nodetypes="cc" />
      <path
         style="fill:#000000;fill-opacity:1;fill-rule:evenodd;stroke:#000000;stroke-width:1px;stroke-linecap:butt;stroke-linejoin:miter;stroke-opacity:1"
         d="m 173.28621,316.50082 c 0.0784,6.51503 0.0363,13.00597 -1.21628,19.25481 0.92565,-1.70843 1.5407,-4.16186 4.39127,-3.9532 -2.89343,-4.32249 -3.2326,-9.54831 -3.17499,-15.30161 z"
         id="path4215"
         inkscape:connector-curvature="0"
         sodipodi:nodetypes="cccc" />
      <path
         style="fill:none;fill-rule:evenodd;stroke:#000000;stroke-width:1px;stroke-linecap:butt;stroke-linejoin:miter;stroke-opacity:1"
         d="m 160.09375,330.72337 4.49777,-3.75378 c 1.67079,2.21862 1.81302,4.56463 2.50252,6.86503 l 2.97598,3.11124 2.33343,-1.35272"
         id="path4217"
         inkscape:connector-curvature="0"
         sodipodi:nodetypes="ccccc" />
      <path
         style="fill:none;fill-rule:evenodd;stroke:#000000;stroke-width:1px;stroke-linecap:butt;stroke-linejoin:miter;stroke-opacity:1"
         d="m 244.60747,277.90861 3.03179,0.64506"
         id="path4219"
         inkscape:connector-curvature="0" />
      <ellipse
         style="opacity:0.71100003;fill:#000000;fill-opacity:1;fill-rule:evenodd;stroke:none;stroke-width:1;stroke-linecap:round;stroke-linejoin:miter;stroke-miterlimit:4;stroke-dasharray:none;stroke-opacity:1"
         id="path4221"
         cx="246.76842"
         cy="283.39166"
         rx="0.80632734"
         ry="0.90308666" />
      <ellipse
         style="opacity:0.71100003;fill:#000000;fill-opacity:1;fill-rule:evenodd;stroke:none;stroke-width:1;stroke-linecap:round;stroke-linejoin:miter;stroke-miterlimit:4;stroke-dasharray:none;stroke-opacity:1"
         id="path4223"
         cx="98.24292"
         cy="278.29565"
         rx="1.4191362"
         ry="0.77407426" />
      <ellipse
         style="opacity:0.71100003;fill:#000000;fill-opacity:1;fill-rule:evenodd;stroke:none;stroke-width:1;stroke-linecap:round;stroke-linejoin:miter;stroke-miterlimit:4;stroke-dasharray:none;stroke-opacity:1"
         id="path4225"
         cx="94.340302"
         cy="282.10153"
         rx="0.99984592"
         ry="0.90308666" />
    </g>
    <g
       inkscape:groupmode="layer"
       id="layer7"
       inkscape:label="base_nuri"
       style="display:inline;opacity:1"
       sodipodi:insensitive="true">
      <path
         style="opacity:1;fill:#71553a;fill-opacity:1;fill-rule:evenodd;stroke:none;stroke-width:1px;stroke-linecap:butt;stroke-linejoin:miter;stroke-opacity:1"
         d="m 159.46435,410.45741 22.1044,0.44098 c 3.16219,-0.3854 6.12841,-2.51857 8.22418,-4.70904 57.62691,-60.23081 53.51947,-54.51303 71.2073,-141.6893 C 271.02619,130.33347 202.52969,130.46403 125.45872,129.63728 l 45.29703,125.46695 -6.90227,8.57701 c -11.28111,-0.80225 -23.21689,-2.68469 -28.11838,7.03945 l 20.95252,2.09221 c -17.53615,17.12038 -36.99227,32.53413 -48.96763,54.59743 14.39126,-15.07229 42.11895,-28.71068 64.93298,-35.41092 -0.82022,10.06029 -1.6503,20.12058 -0.85902,30.18087 -7.2058,0.46597 -10.41619,5.9262 -15.26431,9.33926 5.60316,-0.41148 9.92468,3.02197 14.23698,6.48309 2.88514,-2.78198 6.96043,-5.26643 11.14532,-7.72347 -3.70237,-53.69435 28.25597,-35.02449 58.31159,-64.0785 4.6918,1.10978 11.81144,5.80203 11.58139,8.66321 -4.18308,52.02502 -18.80418,91.6499 -71.61957,132.35493 -3.6571,2.81854 -25.32779,1.77399 -32.8668,-4.68918 3.14441,4.17898 7.22574,6.86843 12.1458,7.92779 z"
         id="path4162-1"
         inkscape:connector-curvature="0"
         sodipodi:nodetypes="ccscccccccccccccsscc" />
      <path
         style="fill:#71543b;fill-opacity:1;fill-rule:evenodd;stroke:#71543b;stroke-width:1px;stroke-linecap:butt;stroke-linejoin:miter;stroke-opacity:1"
         d="m 130.04758,346.11771 c -2.97131,3.10327 -0.85936,4.75417 4.8269,5.38384 z"
         id="path4227"
         inkscape:connector-curvature="0"
         sodipodi:nodetypes="ccc" />
      <path
         style="fill:#71553a;fill-opacity:1;fill-rule:evenodd;stroke:#72543b;stroke-width:1px;stroke-linecap:butt;stroke-linejoin:round;stroke-opacity:1"
         d="m 146.47758,361.89793 c 15.27296,21.93683 31.47996,23.79175 48.73303,3.15604 -15.66094,3.23937 -31.87014,3.08063 -48.73303,-3.15604 z"
         id="path4229"
         inkscape:connector-curvature="0"
         sodipodi:nodetypes="ccc" />
    </g>
    <g
       inkscape:groupmode="layer"
       id="layer9"
       inkscape:label="eye"
       style="display:inline;opacity:1">
      <path
         style="fill:#ffffff;fill-rule:evenodd;stroke:#000000;stroke-width:1px;stroke-linecap:butt;stroke-linejoin:miter;stroke-opacity:1"
         d="m 195.07819,260.29537 44.42374,-7.30599 c 5.83294,4.13395 1.80735,16.69375 -8.46021,19.52312 -11.60169,3.197 -35.00178,-1.13096 -35.96353,-12.21713 z"
         id="path4235"
         inkscape:connector-curvature="0"
         sodipodi:nodetypes="ccsc" />
      <path
         style="fill:#ffffff;fill-opacity:1;fill-rule:evenodd;stroke:#000000;stroke-width:1px;stroke-linecap:butt;stroke-linejoin:miter;stroke-opacity:1"
         d="m 137.21815,258.27992 -41.232629,-4.03089 c 1.064455,26.53742 42.728929,20.3578 48.034749,9.74132 2.2322,-4.46643 -1.42183,-5.03574 -6.80212,-5.71043 z"
         id="path4263"
         inkscape:connector-curvature="0"
         sodipodi:nodetypes="ccsc" />
      <path
         style="fill:#6f6391;fill-opacity:1;fill-rule:evenodd;stroke:#000000;stroke-width:1px;stroke-linecap:butt;stroke-linejoin:miter;stroke-opacity:1"
         d="m 183.90927,262.81467 c 16.32691,3.08413 42.60424,-35.38224 65.16602,-23.34556 -17.27069,-10.29395 -54.42392,18.21832 -65.16602,23.34556 z"
         id="path4231"
         inkscape:connector-curvature="0"
         sodipodi:nodetypes="ccc" />
      <path
         style="fill:#b2a258;fill-opacity:1;fill-rule:evenodd;stroke:#000000;stroke-width:0.30000001;stroke-linecap:butt;stroke-linejoin:miter;stroke-miterlimit:4;stroke-dasharray:none;stroke-opacity:1"
         d="m 209.43822,257.77606 c -1.09477,5.91469 3.90224,8.43991 8.19588,7.80508 4.63194,-0.68485 8.47489,-4.9388 3.81281,-9.48461 z"
         id="path4237"
         inkscape:connector-curvature="0"
         sodipodi:nodetypes="cscc" />
      <path
         style="fill:#000000;fill-opacity:1;fill-rule:evenodd;stroke:#000000;stroke-width:1px;stroke-linecap:butt;stroke-linejoin:miter;stroke-opacity:1"
         d="m 212.46139,257.44015 c -1.28692,6.92474 10.36869,5.54212 6.21429,-0.75579 -2.346,0.0927 -3.93095,0.27042 -6.21429,0.75579 z"
         id="path4239"
         inkscape:connector-curvature="0"
         sodipodi:nodetypes="ccc" />
      <ellipse
         style="opacity:1;fill:#ffffff;fill-opacity:1;fill-rule:evenodd;stroke:#000000;stroke-width:0.27303395;stroke-linecap:round;stroke-linejoin:round;stroke-miterlimit:4;stroke-dasharray:none;stroke-opacity:1"
         id="path4243"
         cx="214.10086"
         cy="258.91452"
         rx="1.7782761"
         ry="1.6998899" />
      <path
         style="fill:none;fill-rule:evenodd;stroke:#000000;stroke-width:1px;stroke-linecap:butt;stroke-linejoin:miter;stroke-opacity:1"
         d="m 205.9112,253.57722 23.09363,-3.94691"
         id="path4245"
         inkscape:connector-curvature="0" />
      <path
         style="fill:none;fill-rule:evenodd;stroke:#000000;stroke-width:1px;stroke-linecap:butt;stroke-linejoin:miter;stroke-opacity:1"
         d="m 191.46718,270.70849 6.8861,4.45078"
         id="path4247"
         inkscape:connector-curvature="0" />
      <path
         style="fill:none;fill-rule:evenodd;stroke:#000000;stroke-width:1px;stroke-linecap:butt;stroke-linejoin:miter;stroke-opacity:1"
         d="m 159.38803,267.85328 3.86294,3.10714"
         id="path4249"
         inkscape:connector-curvature="0" />
      <path
         style="fill:none;fill-rule:evenodd;stroke:#000000;stroke-width:1px;stroke-linecap:butt;stroke-linejoin:miter;stroke-opacity:1"
         d="m 161.23552,274.06757 2.09942,1.76351"
         id="path4251"
         inkscape:connector-curvature="0" />
      <path
         style="fill:none;fill-rule:evenodd;stroke:#000000;stroke-width:1px;stroke-linecap:butt;stroke-linejoin:miter;stroke-opacity:1"
         d="m 161.99131,279.0222 1.25966,1.17568"
         id="path4253"
         inkscape:connector-curvature="0" />
      <path
         style="fill:none;fill-rule:evenodd;stroke:#000000;stroke-width:1px;stroke-linecap:butt;stroke-linejoin:miter;stroke-opacity:1"
         d="m 141.33301,274.23552 5.7944,-3.10714"
         id="path4255"
         inkscape:connector-curvature="0" />
      <path
         style="fill:#6f6391;fill-opacity:1;fill-rule:evenodd;stroke:#6f6391;stroke-width:1px;stroke-linecap:butt;stroke-linejoin:miter;stroke-opacity:1"
         d="m 158.0444,261.72297 -9.82529,1.84749 -19.73455,-9.65733 3.02316,-1.93147 c 8.22467,4.24053 17.19528,7.28756 26.53668,9.74131 z"
         id="path4259"
         inkscape:connector-curvature="0"
         sodipodi:nodetypes="ccccc" />
      <path
         style="fill:none;fill-rule:evenodd;stroke:#000000;stroke-width:1px;stroke-linecap:butt;stroke-linejoin:miter;stroke-opacity:1"
         d="m 163.08301,255.0888 c -0.89889,2.73566 -1.39859,5.92754 -3.77896,6.97008 -25.63189,-6.25873 -57.4812,-27.78575 -68.441116,-19.23069 12.049776,-7.976 39.637066,14.44401 59.455596,21.66602"
         id="path4257"
         inkscape:connector-curvature="0"
         sodipodi:nodetypes="cccc" />
      <path
         style="fill:#a08b48;fill-opacity:1;fill-rule:evenodd;stroke:#000000;stroke-width:0.30000001;stroke-linecap:butt;stroke-linejoin:miter;stroke-miterlimit:4;stroke-dasharray:none;stroke-opacity:1"
         d="m 117.56757,261.9749 12.09266,-4.53475 c 3.74523,9.40365 -8.76132,12.25341 -12.09266,4.53475 z"
         id="path4265"
         inkscape:connector-curvature="0"
         sodipodi:nodetypes="ccc" />
      <ellipse
         style="opacity:1;fill:#000000;fill-opacity:1;fill-rule:evenodd;stroke:#120e16;stroke-width:0.30000001;stroke-linecap:round;stroke-linejoin:round;stroke-miterlimit:4;stroke-dasharray:none;stroke-opacity:1"
         id="path4267"
         cx="124.03378"
         cy="260.50531"
         rx="3.6949806"
         ry="2.9811776" />
      <path
         style="fill:none;fill-rule:evenodd;stroke:#000000;stroke-width:1px;stroke-linecap:butt;stroke-linejoin:miter;stroke-opacity:1"
         d="m 190.12355,263.73842 6.15812,-4.05337 45.48763,-6.9476 7.22201,4.7027"
         id="path4233"
         inkscape:connector-curvature="0"
         sodipodi:nodetypes="cccc" />
    </g>
  </g>
  <g
     inkscape:groupmode="layer"
     id="layer2"
     inkscape:label="back_hair_senga"
     style="display:inline;opacity:1"
     sodipodi:insensitive="true">
    <path
       style="fill:#e5e7ee;fill-opacity:1;fill-rule:evenodd;stroke:#000000;stroke-width:1px;stroke-linecap:butt;stroke-linejoin:miter;stroke-opacity:1"
       d="M 76.35848,264.77226 86.380964,247.4755 c -15.091881,12.56884 -0.37272,-12.71696 4.562374,-15.20792 -14.878513,11.00294 -9.012006,2.15312 -0.608316,-9.12475 -5.528393,-26.93386 6.012698,-30.48001 -4.866533,-36.499 8.719204,3.5646 15.914021,6.3506 24.633221,9.17976 -4.07536,-2.98438 -8.60421,-5.75535 -8.51283,-10.70055 9.24099,6.31306 19.57384,7.16682 29.50336,10.03723 -4.85133,-3.34574 -6.18406,-5.92929 -8.11701,-9.27504 7.39818,3.47606 15.11524,6.15488 23.02076,8.36256 -2.96323,-2.02772 -4.28492,-4.05545 -5.779,-6.08317 l 23.11603,10.34139 c 16.98079,-1.30776 32.6485,-4.91342 42.58216,-18.55366 l -9.12475,13.38297 c 8.93975,-0.21218 16.65698,-5.00879 24.63683,-8.82059 -4.9316,4.09176 -9.40075,8.64597 -15.51208,11.55801 13.01515,-0.88995 22.79907,-7.65488 33.15326,-13.38296 l -14.29544,12.16633 28.59088,-10.64554 -5.85595,5.87427 14.37239,-4.65764 c -4.46905,2.06834 -9.25717,3.73784 -12.77465,6.99564 4.66773,12.11378 2.74671,23.65463 1.82495,35.28237 1.2252,3.74783 17.38647,20.79809 3.34574,10.9497 0.94555,3.67583 10.81866,14.34893 2.73742,10.9497 l 2.73743,13.99128 c 5.81425,-0.41826 8.02203,-51.87115 10.64554,-77.86453 4.69323,-2.19474 9.76734,-3.74797 -0.45444,-6.93704 l 6.77956,-6.27372 -7.84591,-5.18903 10.34138,-9.88694 c -4.46166,-0.11637 -9.00818,0.19158 -12.98354,-2.35632 l -2.83269,4.18127 c 3.89967,-7.90968 7.25825,-25.95965 8.61167,-35.72739 1.65922,-8.32739 4.08109,-15.70346 4.8849,-17.92168 -4.68122,3.50661 -8.65005,7.7256 -12.5841,11.97938 l -2.43326,-49.273644 -21.8994,27.374249 c -0.34636,-13.019624 0.90401,-28.634584 5.47485,-32.544941 -6.72154,4.416665 -12.86215,9.29808 -15.81624,16.728708 l 0,10.037225 c 0.25701,-22.25736 -13.80117,-43.907291 -24.0285,-61.135823 -1.04438,12.92722 -2.96009,27.076634 -8.97447,39.258354 l 1.97882,12.448561 C 195.34509,57.990088 187.6168,32.447565 171.24114,14.794381 167.20493,34.628978 139.43212,44.787262 123.79244,82.621687 L 131.22418,67.83154 C 131.1337,57.436911 136.36265,39.0565 142.36443,33.428573 115.74479,47.408049 106.2111,64.317855 99.155613,95.396337 l 4.258217,-18.2495 C 100.87865,65.149966 95.792445,56.396636 90.393624,49.208134 91.531082,72.138778 75.827488,80.230201 79.385322,112.4292 72.206364,104.34915 64.960006,95.295471 55.584034,91.36534 c 7.113091,9.93568 6.224469,26.53945 9.201689,39.92168 -6.181893,-0.43141 -9.294461,-7.3084 -13.078808,-12.77465 -1.085507,16.7197 6.863019,32.28118 15.512074,47.75286 -2.587899,3.97813 -6.490133,9.2522 -10.553862,12.49241 4.174267,-0.94917 8.104341,-2.26464 11.770496,-3.97598 -2.87663,6.65051 -7.320228,13.69157 -13.214349,17.07313 l 11.997715,-0.64858 -4.258216,8.21227 5.170691,1.52079 c 1.101329,21.27766 4.64156,42.55533 8.227016,63.83299 z"
       id="path4139"
       inkscape:connector-curvature="0"
       sodipodi:nodetypes="ccccccccccccccccccccccccccccccccccccccccccccccccccccccccccccccc" />
    <path
       style="fill:none;fill-rule:evenodd;stroke:#000000;stroke-width:1px;stroke-linecap:butt;stroke-linejoin:miter;stroke-opacity:1"
       d="m 72.813239,242.74823 c 2.138989,-4.67199 4.780575,-10.52317 7.64539,-13.7435"
       id="path4141"
       inkscape:connector-curvature="0"
       sodipodi:nodetypes="cc" />
    <path
       style="fill:none;fill-rule:evenodd;stroke:#000000;stroke-width:1px;stroke-linecap:butt;stroke-linejoin:miter;stroke-opacity:1"
       d="m 74.451537,222.08747 c 4.321582,-7.41533 8.621108,-14.84721 14.835697,-20.84279"
       id="path4143"
       inkscape:connector-curvature="0"
       sodipodi:nodetypes="cc" />
    <path
       style="fill:none;fill-rule:evenodd;stroke:#000000;stroke-width:1px;stroke-linecap:round;stroke-linejoin:miter;stroke-opacity:1"
       d="M 91.380615,176.67021 C 78.318243,163.91339 66.027075,147.33053 64.924988,131.87048"
       id="path4145"
       inkscape:connector-curvature="0"
       sodipodi:nodetypes="cc" />
    <path
       style="fill:none;fill-rule:evenodd;stroke:#000000;stroke-width:1px;stroke-linecap:round;stroke-linejoin:miter;stroke-opacity:1"
       d="m 114.08437,96.690182 c -3.60432,7.822408 -8.38259,17.134528 -7.89601,28.094188 -6.1475,-15.75657 -18.328385,-27.2674 -19.680832,-30.108728"
       id="path4147"
       inkscape:connector-curvature="0"
       sodipodi:nodetypes="ccc" />
    <path
       style="fill:none;fill-rule:evenodd;stroke:#000000;stroke-width:1px;stroke-linecap:butt;stroke-linejoin:miter;stroke-opacity:1"
       d="m 86.067789,88.924315 c 0.360629,34.784965 3.335455,68.689065 34.735881,93.014965"
       id="path4149"
       inkscape:connector-curvature="0"
       sodipodi:nodetypes="cc" />
    <path
       style="fill:none;fill-rule:evenodd;stroke:#000000;stroke-width:1px;stroke-linecap:butt;stroke-linejoin:miter;stroke-opacity:1"
       d="m 133.20728,143.08686 c 3.16453,10.54313 7.2072,20.56971 14.32714,28.78613"
       id="path4151"
       inkscape:connector-curvature="0"
       sodipodi:nodetypes="cc" />
    <path
       style="fill:none;fill-rule:evenodd;stroke:#000000;stroke-width:1px;stroke-linecap:butt;stroke-linejoin:miter;stroke-opacity:1"
       d="m 126.81365,136.67343 c -3.28767,-35.82403 11.8836,-61.204187 31.96495,-83.806271 -11.34097,27.722598 1.40996,64.314151 8.13653,81.714021 6.93415,-13.31592 10.81121,-27.65087 14.06457,-42.193726"
       id="path4153"
       inkscape:connector-curvature="0"
       sodipodi:nodetypes="cccc" />
    <path
       style="fill:none;fill-rule:evenodd;stroke:#000000;stroke-width:1px;stroke-linecap:butt;stroke-linejoin:miter;stroke-opacity:1"
       d="m 182.37454,164.33764 c -0.94405,6.62894 -5.629,11.34512 -9.2989,16.15682"
       id="path4155"
       inkscape:connector-curvature="0"
       sodipodi:nodetypes="cc" />
    <path
       style="fill:none;fill-rule:evenodd;stroke:#000000;stroke-width:1px;stroke-linecap:butt;stroke-linejoin:miter;stroke-opacity:1"
       d="m 199.24335,145.48952 c 13.93802,-13.75726 31.91516,-30.7232 33.85137,-59.972915 8.19577,27.332465 5.9021,59.335435 -11.19494,80.763525"
       id="path4157"
       inkscape:connector-curvature="0"
       sodipodi:nodetypes="ccc" />
    <path
       style="fill:none;fill-rule:evenodd;stroke:#000000;stroke-width:1px;stroke-linecap:butt;stroke-linejoin:miter;stroke-opacity:1"
       d="m 228.47408,155.88463 c 14.72608,-4.01164 41.51736,-27.1524 32.97391,-31.21643 6.20675,-2.89817 0.89305,35.45414 -38.24639,66.70105"
       id="path4159"
       inkscape:connector-curvature="0"
       sodipodi:nodetypes="ccc" />
    <path
       style="fill:none;fill-rule:evenodd;stroke:#000000;stroke-width:1px;stroke-linecap:butt;stroke-linejoin:miter;stroke-opacity:1"
       d="m 251.55119,201.95338 c 3.88524,1.84279 7.56146,4.02004 10.73727,6.99792"
       id="path4161"
       inkscape:connector-curvature="0"
       sodipodi:nodetypes="cc" />
    <path
       style="fill:none;fill-rule:evenodd;stroke:#000000;stroke-width:1px;stroke-linecap:butt;stroke-linejoin:miter;stroke-opacity:1"
       d="m 255.82473,215.25477 c 3.44979,4.01023 6.59936,8.26438 7.79921,14.10268"
       id="path4163"
       inkscape:connector-curvature="0"
       sodipodi:nodetypes="cc" />
    <path
       style="fill:none;fill-rule:evenodd;stroke:#000000;stroke-width:1px;stroke-linecap:butt;stroke-linejoin:miter;stroke-opacity:1"
       d="m 67.242631,166.20636 5.931447,6.51872"
       id="path4165"
       inkscape:connector-curvature="0" />
    <path
       style="fill:none;fill-rule:evenodd;stroke:#000000;stroke-width:1px;stroke-linecap:butt;stroke-linejoin:miter;stroke-opacity:1"
       d="m 68.522201,201.17783 4.55865,-2.20809"
       id="path4201"
       inkscape:connector-curvature="0" />
  </g>
  <g
     inkscape:groupmode="layer"
     id="layer5"
     inkscape:label="back_hair_nuri"
     style="display:inline;opacity:1"
     sodipodi:insensitive="true">
    <path
       style="display:inline;opacity:1;fill:none;fill-rule:evenodd;stroke:none;stroke-width:1px;stroke-linecap:butt;stroke-linejoin:miter;stroke-opacity:1"
       d="m 76.358485,264.77247 10.022479,-17.29676 c -15.091876,12.56884 -0.37272,-12.71696 4.56238,-15.20792 -14.878514,11.00294 -9.01201,2.15312 -0.60832,-9.12475 -5.52839,-26.93386 6.0127,-30.48001 -4.86653,-36.499 8.7192,3.5646 15.914016,6.3506 24.633216,9.17976 -4.07536,-2.98438 -8.60421,-5.75535 -8.51283,-10.70055 9.24099,6.31306 19.57384,7.16682 29.50336,10.03723 -4.85133,-3.34574 -6.18406,-5.92929 -8.11701,-9.27504 7.39818,3.47606 15.11524,6.15488 23.02076,8.36256 -2.96323,-2.02772 -4.28492,-4.05545 -5.779,-6.08317 l 23.11603,10.34139 c 16.98079,-1.30776 32.6485,-4.91342 42.58216,-18.55366 l -9.12475,13.38297 c 8.93975,-0.21218 16.65698,-5.00879 24.63683,-8.82059 -4.9316,4.09176 -9.40075,8.64597 -15.51208,11.55801 13.01515,-0.88995 22.79907,-7.65488 33.15326,-13.38296 l -14.29544,12.16633 28.59088,-10.64554 -5.85595,5.87427 14.37239,-4.65764 c -4.46905,2.06834 -9.25717,3.73784 -12.77465,6.99564 4.66773,12.11378 2.74671,23.65463 1.82495,35.28237 1.2252,3.74783 17.38647,20.79809 3.34574,10.9497 0.94555,3.67583 10.81866,14.34893 2.73742,10.9497 l 2.73743,13.99128 c 5.81425,-0.41826 8.02203,-51.87115 10.64554,-77.86453 4.69323,-2.19474 9.76734,-3.74797 -0.45444,-6.93704 l 6.77956,-6.27372 -7.84591,-5.18903 10.34138,-9.88694 c -4.46166,-0.11637 -9.00818,0.19158 -12.98354,-2.35632 l -2.83269,4.18127 c 3.89967,-7.90968 7.25825,-25.95965 8.61167,-35.72739 1.65922,-8.32739 4.08109,-15.70346 4.8849,-17.92168 -4.68122,3.50661 -8.65005,7.7256 -12.5841,11.97938 l -2.43326,-49.273611 -21.8994,27.374253 c -0.34636,-13.019628 0.90401,-28.634588 5.47485,-32.544945 -6.72154,4.416665 -12.86215,9.29808 -15.81624,16.728708 l 0,10.037226 c 0.25701,-22.257361 -13.80117,-43.907292 -24.0285,-61.135824 -1.04438,12.92722 -2.96009,27.076634 -8.97447,39.258354 l 1.97882,12.448561 C 195.34509,57.990331 187.6168,32.447808 171.24114,14.794624 167.20493,34.629221 139.43212,44.787505 123.79244,82.62193 l 7.43174,-14.790147 c -0.0905,-10.394629 5.13847,-28.77504 11.14025,-34.402967 C 115.74479,47.408292 106.2111,64.318098 99.155614,95.396582 L 103.41383,77.14708 C 100.87865,65.150209 95.792444,56.396879 90.393624,49.208377 91.531084,72.139021 75.827493,80.230444 79.385327,112.42941 72.206369,104.34936 64.960011,95.295712 55.584038,91.365584 c 7.113092,9.935646 6.22447,26.539416 9.20169,39.921646 -6.181894,-0.43141 -9.294462,-7.3084 -13.078809,-12.77465 -1.085507,16.7197 6.863019,32.28118 15.512075,47.75286 -2.587899,3.97813 -6.490134,9.2522 -10.553863,12.49241 4.174267,-0.94917 8.104342,-2.26464 11.770497,-3.97598 -2.87663,6.65051 -7.320228,13.69157 -13.21435,17.07313 l 11.997716,-0.64858 -4.258216,8.21227 5.170691,1.52079 c 1.101329,21.27766 4.64156,42.55533 8.227016,63.83299 z"
       id="path4139-2"
       inkscape:connector-curvature="0"
       sodipodi:nodetypes="ccccccccccccccccccccccccccccccccccccccccccccccccccccccccccccccc" />
    <path
       style="display:inline;opacity:1;fill:#6f6291;fill-opacity:1;fill-rule:evenodd;stroke:none;stroke-width:1px;stroke-linecap:butt;stroke-linejoin:miter;stroke-opacity:1"
       d="m 261.16428,133.08349 c -12.29146,17.66827 -30.20325,35.57912 -49.56801,43.29472 7.71724,-12.60542 10.40657,-28.98176 15.48313,-43.56768 -17.50274,33.01571 -35.08666,42.86623 -51.73335,53.94553 13.22086,-18.33795 17.87839,-48.28252 21.60011,-66.38989 -10.16831,28.25248 -15.68769,44.18661 -31.4801,60.5087 -18.04712,-22.25735 -33.08499,-42.74698 -32.08633,-72.49928 -1.39617,16.37036 -8.60149,44.17523 2.12638,66.21177 -14.36951,-3.87181 -36.890391,-35.36659 -37.452994,-45.87548 4.687204,17.08467 6.582714,34.9307 19.241824,49.84121 -10.86327,-7.69223 -35.076844,-29.15622 -45.131505,-49.27793 3.525736,13.52304 8.454447,34.87763 20.157665,46.80553 -6.790876,0.15854 -32.805392,-24.34152 -38.965937,-43.31565 7.147786,24.27961 12.032254,31.55422 28.751195,49.4824 l -12.147838,4.46892 10.058604,-1.42422 c -5.343806,6.18011 -11.417038,9.07552 -17.056347,14.12655 l 5.170691,1.52079 c 1.101329,21.27766 4.64156,42.55533 8.227016,63.83299 l 10.022484,-17.29676 c -15.091881,12.56884 -0.37272,-12.71696 4.562374,-15.20792 -14.878513,11.00294 -9.012006,2.15312 -0.608316,-9.12475 -5.528393,-26.93386 6.012698,-30.48001 -4.866533,-36.499 8.719204,3.5646 15.914017,6.3506 24.633217,9.17976 -4.07536,-2.98438 -8.60421,-5.75535 -8.51283,-10.70055 9.24099,6.31306 19.57384,7.16682 29.50336,10.03723 -4.85133,-3.34574 -6.18406,-5.92929 -8.11701,-9.27504 7.39818,3.47606 15.11524,6.15488 23.02076,8.36256 -2.96323,-2.02772 -4.28492,-4.05545 -5.779,-6.08317 l 23.11603,10.34139 c 16.98079,-1.30776 32.6485,-4.91342 42.58216,-18.55366 l -9.12475,13.38297 c 8.93975,-0.21218 16.65698,-5.00879 24.63683,-8.82059 -4.9316,4.09176 -9.40075,8.64597 -15.51208,11.55801 13.01515,-0.88995 22.79907,-7.65488 33.15326,-13.38296 l -14.29544,12.16633 28.59088,-10.64554 -5.85595,5.87427 14.37239,-4.65764 c -4.46905,2.06834 -9.25717,3.73784 -12.77465,6.99564 4.66773,12.11378 2.74671,23.65463 1.82495,35.28237 1.2252,3.74783 17.38647,20.79809 3.34574,10.9497 0.94555,3.67583 10.81866,14.34893 2.73742,10.9497 l 2.73743,13.99128 c 5.81425,-0.41826 8.02203,-51.87115 10.64554,-77.86453 4.69323,-2.19474 9.76734,-3.74797 -0.45444,-6.93704 l 6.77956,-6.27372 -7.84591,-5.18903 10.34138,-9.88694 c -4.46166,-0.11637 -9.00818,0.19158 -12.98354,-2.35632 l -2.83269,4.18127 c 3.89967,-7.90968 7.25825,-25.95965 8.61167,-35.72739 -5.05112,10.01056 -10.75769,36.71165 -26.67053,46.4385 26.36249,-40.69819 17.16918,-53.62486 16.82546,-87.668203 -2.89936,21.942773 -15.36596,56.119433 -31.54963,72.094123 11.46797,2.06451 27.91358,-19.77541 30.5462,-21.32333 z"
       id="path4139-9"
       inkscape:connector-curvature="0"
       sodipodi:nodetypes="cccccccccccccccccccccccccccccccccccccccccccccccccccccccc" />
  </g>
  <g
     inkscape:groupmode="layer"
     id="layer3"
     inkscape:label="front_hair"
     style="display:inline;opacity:1">
    <path
       style="opacity:1;fill:#e4e7ee;fill-opacity:1;fill-rule:evenodd;stroke:#000000;stroke-width:1px;stroke-linecap:butt;stroke-linejoin:miter;stroke-opacity:1"
       d="m 151.84112,177.90934 7.74261,-3.01102 19.35651,2.58087 31.40058,15.05507 c 8.90736,11.55594 19.63017,20.84257 33.12115,26.66898 -27.90562,21.62509 -60.66215,22.57902 -82.36578,28.87518 C 112.62633,262.13938 55.956664,282.28159 31.400572,325.87915 48.338051,274.97641 103.54507,239.549 151.84112,205.4386 c 1.50685,-10.01356 7.90413,-22.74402 0,-27.52926 z"
       id="path4505"
       inkscape:connector-curvature="0"
       sodipodi:nodetypes="cccccsccc" />
    <path
       style="opacity:1;fill:#6f6391;fill-opacity:1;fill-rule:evenodd;stroke:none;stroke-width:1px;stroke-linecap:butt;stroke-linejoin:miter;stroke-opacity:1"
       d="M 32.691006,325.44901 C 55.12609,280.9783 115.26952,261.56896 165.68119,246.59572 c 9.31001,-2.76525 50.04426,-6.45292 77.43254,-27.38217 -12.01493,-4.58934 -23.90193,-9.49849 -33.6332,-19.79697 l -16.34551,12.4742 12.90435,-16.34551 C 168.28414,222.54531 52.453013,272.03647 32.691006,325.44901 Z"
       id="path4510"
       inkscape:connector-curvature="0"
       sodipodi:nodetypes="csccccc" />
    <path
       style="fill:none;fill-rule:evenodd;stroke:#000000;stroke-width:1px;stroke-linecap:butt;stroke-linejoin:miter;stroke-opacity:1"
       d="M 51.617378,298.78003 C 90.882366,253.93848 154.41101,229.62771 206.89966,195.97542"
       id="path4508"
       inkscape:connector-curvature="0"
       sodipodi:nodetypes="cc" />
  </g>
</svg>
